<svg xmlns="http://www.w3.org/2000/svg">
   <symbol fill="none" viewBox="0 0 34 31" id="bch">
    <path d="M17.3726 30.6938C26.2188 30.6938 33.0866 23.8778 32.7124 15.4697C32.3381 7.06167 24.8635 0.245605 16.0174 0.245605C7.17122 0.245605 0.303381 7.06167 0.677621 15.4697C1.05186 23.8778 8.52647 30.6938 17.3726 30.6938Z" fill="#77BF00"></path>
    <path d="M20.6684 8.88836C19.7144 8.47915 18.5842 8.46352 16.9436 8.84282L16.9181 8.84823L16.1233 6.0261L14.4579 6.41388L15.256 9.24117C14.7593 9.36144 14.2113 9.49388 13.6742 9.62973L12.8765 6.77925L11.2085 7.16495L11.9999 10.0233C11.4173 10.1808 8.58687 10.7963 8.58687 10.7963L9.01958 12.458L11.182 12.0002L13.5111 20.3155L11.3691 20.7717L11.8188 22.4623C11.8188 22.4623 14.6533 21.8791 15.2984 21.7587L16.0947 24.6329L17.7601 24.2451L16.9686 21.4143C17.529 21.3053 18.0848 21.1711 18.572 21.0718L19.3464 23.8875L21.0118 23.4997L20.2424 20.7296C22.0671 20.2614 23.261 19.6122 23.8868 18.7317C24.1498 18.3495 24.3231 17.9218 24.3959 17.4755C24.4686 17.0292 24.4393 16.5741 24.3096 16.1386C23.8285 14.4026 22.1581 13.8081 20.8754 13.8142L20.8678 13.7803C22.0777 13.017 22.6142 11.8403 22.3012 10.7137C22.0449 9.78798 21.4532 9.18346 20.6684 8.88836ZM19.9484 16.9826C20.2296 17.9974 19.5242 18.9531 17.9642 19.3164L16.629 19.6233L15.687 16.2427C16.0968 16.07 16.525 15.9361 16.9648 15.8432C18.4536 15.5025 19.6079 15.7511 19.9484 16.9826ZM18.6865 12.0509C18.7677 12.3223 18.7702 12.6084 18.6936 12.8809C18.617 13.1535 18.464 13.4032 18.2496 13.6056C17.9094 13.9511 17.3907 14.2254 16.7085 14.3825L16.699 14.3875L15.3712 14.694L14.432 11.3119C14.8417 11.1408 15.2694 11.0083 15.7086 10.9164C15.7143 10.9135 15.7181 10.9115 15.7237 10.9085C16.3937 10.7578 16.9923 10.725 17.48 10.8471C18.0735 10.9972 18.5025 11.3786 18.6865 12.0509Z" fill="white"></path>
  </symbol>

  <symbol fill="none" viewBox="0 0 34 31" id="btc">
    <path d="M16.9649 30.6955C26.0362 30.6955 33.2692 23.8795 33.1201 15.4714C32.971 7.06338 25.4964 0.247314 16.4251 0.247314C7.35376 0.247314 0.120843 7.06338 0.269911 15.4714C0.418979 23.8795 7.89358 30.6955 16.9649 30.6955Z" fill="#F7931A"></path>
    <path d="M23.6499 11.6926C23.0405 10.8933 22.0579 10.3577 20.4086 9.93291L20.3832 9.92586L21.2532 7.08394L19.5773 6.65508L18.7074 9.50304C18.2051 9.37922 17.6509 9.24231 17.1044 9.11345L17.9876 6.24535L16.3107 5.81348L15.4176 8.6856C14.8192 8.55473 11.9953 7.78762 11.9953 7.78762L11.4521 9.44466L13.6027 10.0416L11.0282 18.4093L8.89646 17.8204L8.3522 19.5107C8.3522 19.5107 11.1618 20.308 11.7944 20.5003L10.8968 23.3885L12.5727 23.8174L13.4503 20.9694C14.0023 21.1325 14.5642 21.2714 15.0467 21.4093L14.1624 24.2361L15.8382 24.665L16.7015 21.8805C18.5617 22.3123 19.9692 22.2942 21.007 21.811C21.4498 21.5972 21.8393 21.3022 22.1509 20.9444C22.4625 20.5866 22.6894 20.1739 22.8175 19.7322C23.3595 17.9875 22.2246 16.6949 21.0964 16.108L21.1085 16.0748C22.5934 15.9641 23.7172 15.1798 24.0683 14.0473C24.3575 13.1171 24.1742 12.3138 23.6499 11.6926ZM18.5242 18.4587C18.2073 19.4785 17.0581 19.9909 15.4882 19.5892L14.1469 19.2419L15.1979 15.8423C15.6532 15.88 16.103 15.9603 16.5403 16.0818C18.0351 16.4704 18.9094 17.2214 18.5242 18.4587ZM20.1558 13.551C20.0764 13.8266 19.9197 14.0786 19.7012 14.2822C19.4827 14.4859 19.2098 14.6343 18.9094 14.7127C18.4193 14.8587 17.8121 14.8597 17.1265 14.6825H17.1155L15.7808 14.3382L16.8351 10.9386C17.2893 10.9777 17.738 11.059 18.1742 11.1812C18.1808 11.1812 18.1852 11.1812 18.1919 11.1812C18.8631 11.3584 19.4062 11.606 19.7661 11.9383C20.2033 12.344 20.3678 12.8765 20.1558 13.551Z" fill="white"></path>
  </symbol>

  <symbol fill="none" viewBox="0 0 34 34" id="eth">
    <path d="M33.3867 16.6934C33.3867 7.47388 25.9128 1.03114e-05 16.6934 1.07144e-05C7.47387 1.11174e-05 -1.13269e-06 7.47388 -7.2969e-07 16.6934C-3.26693e-07 25.9128 7.47387 33.3867 16.6934 33.3867C25.9128 33.3867 33.3867 25.9128 33.3867 16.6934Z" fill="#3E7DDD"></path>
    <path d="M23.2658 16.289L16.6765 13.0886V4.29958L16.7087 4.24243L23.2658 16.289Z" fill="#C0CCF7"></path>
    <path d="M23.3547 16.4533L16.7087 20.7208L16.6765 20.7002V13.0889L23.2658 16.2893L23.3547 16.4533Z" fill="#A6B9FF"></path>
    <path d="M16.6771 4.29956V13.0886L10.0302 16.4005L16.6771 4.29956Z" fill="white"></path>
    <path d="M23.2658 17.9832L16.6765 22.3322V28.1916L16.7087 28.2487L23.2658 17.9832Z" fill="#C0CCF7"></path>
    <path d="M16.6771 28.1915V22.3321L10.0302 17.8716L16.6771 28.1915Z" fill="white"></path>
    <path d="M16.6765 13.0889V20.7002L10 16.4533L10.0296 16.4008L16.6765 13.0889Z" fill="#C0CCF7"></path>
  </symbol>

  <symbol fill="none" viewBox="0 0 34 34" id="ltc">
    <path d="M16.6934 33.3867C25.9128 33.3867 33.3867 25.9128 33.3867 16.6934C33.3867 7.47387 25.9128 0 16.6934 0C7.47387 0 0 7.47387 0 16.6934C0 25.9128 7.47387 33.3867 16.6934 33.3867Z" fill="#EA6262"></path>
    <path d="M23.7417 24.3246L10.738 24.3086L12.0188 19.242L10.2539 19.8655L10.8258 17.442L12.6441 16.7642L14.8335 8.10815H19.6755L18.0601 14.7403L20.5569 13.8067L20.0289 16.4114L17.4307 17.3301L16.5064 21.1231L24.5625 21.0783L23.7417 24.3246Z" fill="white"></path>
  </symbol>

  <symbol fill="none" viewBox="0 0 34 34" id="xrp">
    <path d="M16.6934 33.3867C25.9128 33.3867 33.3867 25.9128 33.3867 16.6934C33.3867 7.47387 25.9128 0 16.6934 0C7.47387 0 0 7.47387 0 16.6934C0 25.9128 7.47387 33.3867 16.6934 33.3867Z" fill="#907EFF"></path>
    <path d="M21.8358 18.4161C21.4726 18.3293 21.098 18.2953 20.7244 18.3152C20.4532 18.3263 20.1847 18.2598 19.9527 18.124C19.7208 17.9883 19.5358 17.7894 19.4211 17.5525L19.3067 17.3233C19.202 17.1118 19.1568 16.8775 19.1755 16.6439C19.1942 16.4103 19.2761 16.1855 19.4131 15.9919L19.6478 15.6613C19.775 15.4778 19.948 15.3281 20.1511 15.2259C20.3541 15.1237 20.5806 15.0724 20.8096 15.0766C21.1278 15.0859 21.4458 15.0564 21.7563 14.989C23.4075 14.6341 24.6627 13.2624 24.7897 11.6384C24.8339 11.0822 24.7477 10.5234 24.5376 10.0035C24.3275 9.48359 23.9989 9.01572 23.5759 8.63446C23.1528 8.25319 22.6463 7.96826 22.0936 7.80069C21.541 7.63313 20.9563 7.5872 20.3827 7.66631C18.8013 7.87571 17.2823 9.36967 17.0928 10.8961C16.982 11.7563 17.1875 12.6267 17.6738 13.3561C17.9834 13.8201 17.9908 14.4125 17.6572 14.8606L17.355 15.2672C17.2243 15.443 17.0515 15.5858 16.8512 15.6835C16.6509 15.7812 16.4291 15.8308 16.2046 15.8282C15.948 15.8252 15.6974 15.7535 15.4808 15.6212C15.2642 15.4888 15.0901 15.301 14.978 15.0788C14.6001 14.3236 13.9684 13.7133 13.1854 13.3467C12.4023 12.9802 11.5137 12.8789 10.6634 13.0593C9.81307 13.2396 9.05089 13.691 8.50024 14.3404C7.9496 14.9898 7.64275 15.7992 7.62936 16.6374C7.61598 17.4756 7.89686 18.2937 8.42651 18.9591C8.95616 19.6244 9.70357 20.0982 10.5477 20.3036C11.3919 20.5091 12.2833 20.4341 13.0777 20.0909C13.8721 19.7478 14.5229 19.1565 14.9248 18.4128C15.0431 18.2017 15.219 18.0258 15.4335 17.904C15.6481 17.7822 15.8931 17.7192 16.1422 17.7217H16.279C16.5007 17.7217 16.7193 17.7727 16.9164 17.8705C17.1135 17.9682 17.2835 18.11 17.4122 18.2838L17.6234 18.5693C17.9542 19.0156 17.9502 19.6036 17.6492 20.0693C17.1782 20.7976 16.9835 21.6603 17.098 22.5111C17.2943 24.0282 18.815 25.5117 20.3855 25.72C20.9594 25.7989 21.5444 25.7526 22.0972 25.5846C22.65 25.4165 23.1566 25.131 23.5794 24.7492C24.0022 24.3673 24.3305 23.8988 24.54 23.3784C24.7495 22.8579 24.8348 22.2988 24.7897 21.7424C24.6627 20.1481 23.4481 18.798 21.8358 18.4161Z" fill="white"></path>
  </symbol>

   <symbol fill="none" viewBox="0 0 20 27" id="location">
    <path d="M13.8125 10C13.7786 11.151 13.3893 12.1159 12.6445 12.8945C11.8659 13.6393 10.901 14.0286 9.75 14.0625C8.59896 14.0286 7.63411 13.6393 6.85547 12.8945C6.11068 12.1159 5.72135 11.151 5.6875 10C5.72135 8.84896 6.11068 7.88411 6.85547 7.10547C7.63411 6.36068 8.59896 5.97135 9.75 5.9375C10.901 5.97135 11.8659 6.36068 12.6445 7.10547C13.3893 7.88411 13.7786 8.84896 13.8125 10ZM9.75 12.4375C10.4271 12.4036 11.0026 12.1667 11.4766 11.7266C11.9167 11.2526 12.1536 10.6771 12.1875 10C12.1536 9.32292 11.9167 8.7474 11.4766 8.27344C11.0026 7.83333 10.4271 7.59635 9.75 7.5625C9.07292 7.59635 8.4974 7.83333 8.02344 8.27344C7.58333 8.7474 7.34635 9.32292 7.3125 10C7.34635 10.6771 7.58333 11.2526 8.02344 11.7266C8.4974 12.1667 9.07292 12.4036 9.75 12.4375ZM19.5 10C19.4323 11.5234 18.8906 13.2839 17.875 15.2812C16.8255 17.2786 15.6406 19.2083 14.3203 21.0703C13 22.9661 11.8828 24.4727 10.9688 25.5898C10.6302 25.9961 10.224 26.1992 9.75 26.1992C9.27604 26.1992 8.86979 25.9961 8.53125 25.5898C7.61719 24.4727 6.48307 22.9661 5.12891 21.0703C3.80859 19.2083 2.64062 17.2786 1.625 15.2812C0.609375 13.2839 0.0677083 11.5234 0 10C0.0677083 7.22396 1.01562 4.92188 2.84375 3.09375C4.67188 1.26562 6.97396 0.317708 9.75 0.25C12.526 0.317708 14.8281 1.26562 16.6562 3.09375C18.4844 4.92188 19.4323 7.22396 19.5 10ZM9.75 1.875C7.44792 1.94271 5.53516 2.73828 4.01172 4.26172C2.48828 5.78516 1.69271 7.69792 1.625 10C1.625 10.8125 1.91276 11.8789 2.48828 13.1992C3.0638 14.5534 3.79167 15.9583 4.67188 17.4141C5.55208 18.8359 6.44922 20.1562 7.36328 21.375C8.27734 22.6276 9.07292 23.6771 9.75 24.5234C10.4271 23.6771 11.2227 22.6276 12.1367 21.375C13.0508 20.1562 13.9479 18.8359 14.8281 17.4141C15.7083 15.9583 16.4362 14.5534 17.0117 13.1992C17.5872 11.8789 17.875 10.8125 17.875 10C17.8073 7.69792 17.0117 5.78516 15.4883 4.26172C13.9648 2.73828 12.0521 1.94271 9.75 1.875Z" fill="white"></path>
  </symbol>

  <symbol fill="none" viewBox="0 0 23 27" id="calendar">
    <path d="M11.1211 20.3086C10.7487 20.6471 10.3763 20.6471 10.0039 20.3086L6.75391 17.0586C6.41536 16.6862 6.41536 16.3138 6.75391 15.9414C7.1263 15.6029 7.4987 15.6029 7.87109 15.9414L10.5625 18.582L15.6914 13.5039C16.0638 13.1654 16.4362 13.1654 16.8086 13.5039C17.1471 13.8763 17.1471 14.2487 16.8086 14.6211L11.1211 20.3086ZM6.5 3.5H16.25V1.0625C16.2839 0.554688 16.5547 0.283854 17.0625 0.25C17.5703 0.283854 17.8411 0.554688 17.875 1.0625V3.5H19.5C20.4141 3.53385 21.1758 3.85547 21.7852 4.46484C22.3945 5.07422 22.7161 5.83594 22.75 6.75V23C22.7161 23.9141 22.3945 24.6758 21.7852 25.2852C21.1758 25.8945 20.4141 26.2161 19.5 26.25H3.25C2.33594 26.2161 1.57422 25.8945 0.964844 25.2852C0.355469 24.6758 0.0338542 23.9141 0 23V6.75C0.0338542 5.83594 0.355469 5.07422 0.964844 4.46484C1.57422 3.85547 2.33594 3.53385 3.25 3.5H4.875V1.0625C4.90885 0.554688 5.17969 0.283854 5.6875 0.25C6.19531 0.283854 6.46615 0.554688 6.5 1.0625V3.5ZM1.625 23C1.625 23.474 1.77734 23.8633 2.08203 24.168C2.38672 24.4727 2.77604 24.625 3.25 24.625H19.5C19.974 24.625 20.3633 24.4727 20.668 24.168C20.9727 23.8633 21.125 23.474 21.125 23V10H1.625V23ZM1.625 6.75V8.375H21.125V6.75C21.125 6.27604 20.9727 5.88672 20.668 5.58203C20.3633 5.27734 19.974 5.125 19.5 5.125H3.25C2.77604 5.125 2.38672 5.27734 2.08203 5.58203C1.77734 5.88672 1.625 6.27604 1.625 6.75Z" fill="white"></path>
  </symbol>

  <symbol fill="none" viewBox="0 0 26 27" id="time">
    <path d="M13.8125 13.25C13.8125 13.5208 13.694 13.7409 13.457 13.9102L8.58203 17.1602C8.14193 17.3971 7.76953 17.3294 7.46484 16.957C7.22786 16.5169 7.29557 16.1445 7.66797 15.8398L12.1875 12.793V5.9375C12.2214 5.42969 12.4922 5.15885 13 5.125C13.5078 5.15885 13.7786 5.42969 13.8125 5.9375V13.25ZM26 13.25C25.9661 15.6875 25.3737 17.8711 24.2227 19.8008C23.0716 21.7643 21.5143 23.3216 19.5508 24.4727C17.6211 25.6237 15.4375 26.2161 13 26.25C10.5625 26.2161 8.37891 25.6237 6.44922 24.4727C4.48568 23.3216 2.92839 21.7643 1.77734 19.8008C0.626302 17.8711 0.0338542 15.6875 0 13.25C0.0338542 10.8125 0.626302 8.62891 1.77734 6.69922C2.92839 4.73568 4.48568 3.17839 6.44922 2.02734C8.37891 0.876302 10.5625 0.283854 13 0.25C15.4375 0.283854 17.6211 0.876302 19.5508 2.02734C21.5143 3.17839 23.0716 4.73568 24.2227 6.69922C25.3737 8.62891 25.9661 10.8125 26 13.25ZM13 1.875C10.8672 1.90885 8.95443 2.43359 7.26172 3.44922C5.53516 4.43099 4.18099 5.78516 3.19922 7.51172C2.18359 9.20443 1.65885 11.1172 1.625 13.25C1.65885 15.3828 2.18359 17.2956 3.19922 18.9883C4.18099 20.7148 5.53516 22.069 7.26172 23.0508C8.95443 24.0664 10.8672 24.5911 13 24.625C15.1328 24.5911 17.0456 24.0664 18.7383 23.0508C20.4648 22.069 21.819 20.7148 22.8008 18.9883C23.8164 17.2956 24.3411 15.3828 24.375 13.25C24.3411 11.1172 23.8164 9.20443 22.8008 7.51172C21.819 5.78516 20.4648 4.43099 18.7383 3.44922C17.0456 2.43359 15.1328 1.90885 13 1.875Z" fill="white"></path>
  </symbol>

  <symbol fill="none" viewBox="0 0 52 52" id="success">
    <path d="M26 52C40.3609 52 52 40.3609 52 26C52 11.6391 40.3609 0 26 0C11.6391 0 0 11.6391 0 26C0 40.3609 11.6391 52 26 52ZM37.4766 21.2266L24.4766 34.2266C23.5219 35.1813 21.9781 35.1813 21.0336 34.2266L14.5336 27.7266C13.5789 26.7719 13.5789 25.2281 14.5336 24.2836C15.4883 23.3391 17.032 23.3289 17.9766 24.2836L22.75 29.057L34.0234 17.7734C34.9781 16.8188 36.5219 16.8188 37.4664 17.7734C38.4109 18.7281 38.4211 20.2719 37.4664 21.2164L37.4766 21.2266Z" fill="#31B63B"></path>
  </symbol>

  <symbol fill="none" viewBox="0 0 57 57" id="cup">
    <path d="M28.5104 39.7832C18.0815 39.7832 9.6073 31.3313 9.6073 20.9356V3.05176e-05H47.458L47.4247 20.8912C47.4136 31.309 38.9283 39.7832 28.5104 39.7832ZM11.1511 1.55493V20.9356C11.1511 30.4761 18.9367 38.2283 28.4993 38.2283C38.0731 38.2283 45.8587 30.4538 45.8587 20.8912L45.892 1.55493H11.1511Z" fill="#D51820"></path>
    <path d="M12.0171 29.7319C8.15208 29.7319 4.98675 28.4214 2.86542 25.9335C1.0884 23.8344 0.111031 20.9689 0.111031 17.8591V5.06454H10.5066V6.61944H1.66593V17.8591C1.66593 22.6127 4.3759 28.177 12.0282 28.177V29.7319H12.0171Z" fill="#D51820"></path>
    <path d="M45.1696 29.7319V28.177C53.9436 28.177 54.8988 20.9689 54.8988 17.8591V6.61944H47.0688V5.06454H56.4537V17.8591C56.4537 20.1026 56.0316 23.3124 54.0325 25.9002C52.0555 28.4436 49.079 29.7319 45.1696 29.7319Z" fill="#D51820"></path>
    <path d="M44.9359 55.5656H43.381V47.2357H13.8046V55.5656H12.2497V45.6808H44.9359V55.5656Z" fill="#D51820"></path>
    <path d="M23.5553 38.739H22.0004V46.0803H23.5553V38.739Z" fill="#D51820"></path>
    <path d="M35.1954 38.739H33.6405V46.0803H35.1954V38.739Z" fill="#D51820"></path>
    <path d="M56.809 54.9103H-0.000389099V56.4652H56.809V54.9103Z" fill="#D51820"></path>
  </symbol>

  <symbol fill="none" viewBox="0 0 57 57" id="people">
    <path d="M7.91275 27.424C7.41384 27.424 6.89276 27.2911 6.37168 27.0253C4.47584 26.0616 3.26738 24.5886 2.76847 22.6503C2.28065 22.4952 1.89261 22.1408 1.6487 21.5981C1.26067 20.7452 1.09436 19.837 1.1498 18.9066C1.19415 18.2753 1.51566 17.7879 2.01457 17.5664C1.95913 16.4921 1.95913 15.4398 2.31391 14.3876C2.77956 12.9699 3.81063 12.106 5.28517 11.8623C5.46256 11.8402 5.61778 11.818 5.76191 11.8069C6.07234 11.1535 6.68211 10.8323 7.60232 10.8544H7.71318C9.48707 10.9652 10.9838 11.5854 12.1701 12.7152C13.4894 13.9667 14.0327 15.5949 13.7998 17.5553C14.0105 17.655 14.1657 17.7769 14.2766 17.8987C14.587 18.231 14.7311 18.6962 14.709 19.2721C14.6757 20.0585 14.5427 20.8006 14.2987 21.4651C14.1768 21.8085 13.8331 22.5174 13.0459 22.6946C12.4583 24.8544 11.1057 26.3718 8.99925 27.2135C8.63339 27.3575 8.27861 27.424 7.91275 27.424ZM2.70195 18.962C2.70195 18.9731 2.70195 18.9841 2.70195 18.9952C2.6576 19.6708 2.77956 20.3243 3.06781 20.9446C3.1676 21.155 3.2452 21.1661 3.28955 21.1661C3.52237 21.1772 4.07671 21.299 4.23193 22.03C4.57562 23.6582 5.50691 24.8322 7.08124 25.6297C7.58014 25.8844 8.00144 25.9287 8.41165 25.7626C10.1412 25.0759 11.1834 23.8465 11.6047 22.0079C11.782 21.1993 12.3918 21.155 12.6357 21.1661C12.669 21.1661 12.6912 21.1661 12.6912 21.1661C12.6912 21.1661 12.7577 21.1218 12.8242 20.9224C13.0127 20.3908 13.1235 19.8259 13.1457 19.1946C13.1457 19.0727 13.1346 18.9841 13.1235 18.9509C13.1125 18.9509 13.0792 18.9398 13.057 18.9398C12.6579 18.9288 12.4362 18.7183 12.3475 18.5965C12.2255 18.4414 12.1036 18.1756 12.1923 17.7879C12.2033 17.7658 12.2033 17.7326 12.2033 17.6993C12.2033 17.6661 12.2144 17.6329 12.2144 17.5996C12.4583 16.0158 12.0925 14.7753 11.0947 13.8117C10.1745 12.9367 9.0436 12.4715 7.63558 12.3829C7.6134 12.3829 7.58014 12.3829 7.55797 12.3829C7.23645 12.3718 7.18102 12.4272 7.18102 12.4272C7.18102 12.4272 7.14776 12.4604 7.12558 12.5822C7.10341 12.7041 6.92602 13.3133 6.16103 13.3133C6.14995 13.3133 6.13886 13.3133 6.12777 13.3133C5.95038 13.3133 5.76191 13.3354 5.52908 13.3686C4.60888 13.5126 4.07671 13.9667 3.78846 14.8417C3.48911 15.7389 3.52237 16.6914 3.58889 17.7658C3.63324 18.6629 3.06781 18.8955 2.70195 18.962ZM13.7111 18.1313C13.7111 18.1424 13.7111 18.1424 13.7111 18.1313C13.7111 18.1424 13.7111 18.1424 13.7111 18.1313Z" fill="#D51820"></path>
    <path d="M1.97055 40.0949H0.418396V31.0237L4.97507 27.6677V25.818H6.52722V28.4541L1.97055 31.8101V40.0949Z" fill="#D51820"></path>
    <path d="M49.4222 27.424C48.9233 27.424 48.4022 27.2911 47.8811 27.0253C45.9853 26.0616 44.7768 24.5886 44.2779 22.6503C43.7901 22.4952 43.4021 22.1408 43.1582 21.5981C42.7701 20.7452 42.6038 19.837 42.6593 18.9066C42.7036 18.2753 43.0251 17.7879 43.524 17.5664C43.4686 16.4921 43.4686 15.4398 43.8234 14.3876C44.289 12.9699 45.3201 12.106 46.7946 11.8623C46.972 11.8402 47.1272 11.818 47.2714 11.8069C47.5818 11.1535 48.1916 10.8323 49.1118 10.8544H49.2226C50.9965 10.9652 52.4933 11.5854 53.6795 12.7152C54.9989 13.9667 55.5421 15.5949 55.3093 17.5553C55.52 17.655 55.6752 17.7769 55.786 17.8987C56.0965 18.231 56.2406 18.6962 56.2184 19.2721C56.1852 20.0585 56.0521 20.8006 55.8082 21.4651C55.6863 21.8085 55.3426 22.5174 54.5554 22.6946C53.9678 24.8544 52.6152 26.3718 50.5087 27.2135C50.1429 27.3575 49.777 27.424 49.4222 27.424ZM44.2003 18.962C44.2003 18.9731 44.2003 18.9841 44.2003 18.9952C44.156 19.6708 44.2779 20.3243 44.5662 20.9446C44.666 21.155 44.7436 21.1661 44.7879 21.1661C45.0207 21.1772 45.5751 21.299 45.7303 22.03C46.074 23.6582 47.0053 24.8322 48.5796 25.6297C49.0785 25.8844 49.4998 25.9287 49.91 25.7626C51.6396 25.0759 52.6817 23.8465 53.103 22.0079C53.2804 21.1993 53.8902 21.155 54.1341 21.1661C54.1674 21.1661 54.1895 21.1661 54.1895 21.1661C54.1895 21.1661 54.2561 21.1218 54.3226 20.9224C54.5111 20.3908 54.6219 19.8259 54.6441 19.1946C54.6441 19.0727 54.633 18.9841 54.6219 18.9509C54.6108 18.9509 54.5776 18.9398 54.5554 18.9398C54.1563 18.9288 53.9345 18.7183 53.8458 18.5965C53.7239 18.4414 53.6019 18.1756 53.6906 17.7879C53.7017 17.7658 53.7017 17.7326 53.7017 17.6993C53.7017 17.6661 53.7128 17.6329 53.7128 17.5996C53.9567 16.0047 53.5908 14.7753 52.593 13.8117C51.6728 12.9367 50.542 12.4715 49.134 12.3829C49.1118 12.3829 49.0785 12.3829 49.0563 12.3829C48.7348 12.3718 48.6794 12.4272 48.6794 12.4272C48.6794 12.4272 48.6461 12.4604 48.624 12.5822C48.6018 12.7041 48.4133 13.3243 47.6483 13.3133C47.4709 13.3133 47.2714 13.3243 47.0275 13.3686C46.1073 13.5126 45.5751 13.9667 45.2868 14.8417C44.9875 15.7389 45.0207 16.6914 45.0873 17.7658C45.1316 18.6629 44.5662 18.8955 44.2003 18.962ZM55.2095 18.1313C55.2095 18.1424 55.2095 18.1424 55.2095 18.1313C55.2095 18.1424 55.2095 18.1424 55.2095 18.1313ZM54.6108 17.4003C54.6219 17.4003 54.6219 17.4003 54.6108 17.4003C54.6219 17.4003 54.6219 17.4003 54.6108 17.4003Z" fill="#D51820"></path>
    <path d="M56.884 40.0949H55.3319V31.8101L50.7752 28.4541V25.818H52.3274V27.6677L56.884 31.0237V40.0949Z" fill="#D51820"></path>
    <path d="M28.5686 26.6265C27.7703 26.6265 26.9499 26.4271 26.1073 26.0284C22.7702 24.4556 20.6858 22.0078 19.9098 18.7515C19.0561 18.6186 18.3687 18.0869 17.9474 17.223C17.2822 15.8718 17.005 14.4319 17.0937 12.9588C17.1602 11.962 17.7368 11.2531 18.6681 11.0316C18.5572 9.14867 18.5128 7.32114 19.1448 5.51576C19.9098 3.32273 21.5395 2.03792 23.9675 1.67242C24.411 1.60596 24.7991 1.57273 25.1538 1.56166C25.7636 -0.0443515 27.3601 -0.0111239 27.992 -4.79398e-05C28.0142 -4.79398e-05 28.0364 -4.79398e-05 28.0697 -4.79398e-05H28.1473H28.1694C31.2183 0.177167 33.6907 1.14077 35.7306 2.94615C38.0367 4.99519 38.9458 7.7088 38.4136 11.0094C38.8571 11.1091 39.223 11.3085 39.5001 11.6186C39.9214 12.0727 40.121 12.7151 40.0767 13.5126C40.0212 14.7752 39.7773 15.9604 39.3671 17.0347C39.1232 17.6771 38.5245 18.6961 37.2052 18.7847C36.2628 22.4066 33.9235 24.9429 30.2427 26.3164C29.6994 26.5268 29.1451 26.6265 28.5686 26.6265ZM25.3756 3.11229C25.0319 3.11229 24.6549 3.14551 24.2004 3.21197C22.3267 3.48887 21.1848 4.38602 20.6082 6.03633C20.0539 7.60911 20.1093 9.25943 20.2202 11.087C20.2424 11.3971 20.2978 12.3496 19.1004 12.5268C18.8233 12.5711 18.657 12.6597 18.6348 13.0585C18.5572 14.2657 18.79 15.4287 19.3333 16.5363C19.6215 17.1233 19.9874 17.2119 20.2424 17.2341C20.6637 17.2562 21.1958 17.4556 21.3732 18.2642C22.0274 21.1439 23.7791 23.2262 26.7614 24.6328C27.8257 25.1312 28.7792 25.2088 29.6772 24.8765C32.9589 23.6471 34.9324 21.4762 35.7306 18.242C35.8969 17.5442 36.3071 17.2119 36.9391 17.2452C37.2495 17.2673 37.6154 17.223 37.9037 16.4809C38.2695 15.5506 38.458 14.5537 38.5134 13.4461C38.5245 13.0806 38.4691 12.8037 38.3471 12.6708C38.2473 12.5601 38.0478 12.4936 37.7706 12.4825C37.3271 12.4714 37.0832 12.261 36.9502 12.0949C36.8171 11.9287 36.6841 11.6297 36.795 11.1756C36.8061 11.1313 36.8171 11.0648 36.8282 10.9983C36.8393 10.954 36.8393 10.8987 36.8504 10.8544C37.3271 8.03 36.6176 5.82589 34.6774 4.10912C32.9368 2.54741 30.7748 1.71672 28.1029 1.55058H28.0807C28.0364 1.55058 28.0031 1.55058 27.9588 1.55058C26.9055 1.52843 26.6838 1.74995 26.5619 2.30374C26.5064 2.54742 26.2847 3.11229 25.431 3.11229C25.4088 3.11229 25.3867 3.11229 25.3756 3.11229Z" fill="#D51820"></path>
    <path d="M52.1723 56.4649L46.9615 33.1058C44.0789 31.9982 33.4245 27.9776 33.3137 27.9333L32.8148 27.745V23.4033H34.3669V26.6707C36.6508 27.5346 46.0302 31.0789 47.915 31.8099L48.303 31.965L53.6912 56.1326L52.1723 56.4649Z" fill="#D51820"></path>
    <path d="M5.25327 56.4649L3.73438 56.1326L9.11147 31.965L9.49951 31.8099C11.3843 31.0789 20.7859 27.5346 23.0698 26.6707V23.4033H24.6219V27.745L24.123 27.9333C24.0121 27.9776 13.3355 31.9982 10.453 33.1058L5.25327 56.4649Z" fill="#D51820"></path>
  </symbol>

  <symbol fill="none"  viewBox="0 0 50 57" id="regulated">
    <path d="M24.7515 56.4649L24.4602 56.3519C18.3047 53.8892 13.2891 51.0496 9.55275 47.8959C6.22168 45.0815 3.82787 41.9403 2.42198 38.573C0.268816 33.3839 0.420804 27.6419 2.87794 21.0078C5.82904 13.0293 1.06675 9.68714 0.864102 9.54893L0.129494 9.04635L0.712114 8.38043L8.17219 -0.00012207L8.75481 0.515024C8.76748 0.527589 10.7053 2.21124 13.5804 3.02793C17.3675 4.09592 20.9518 3.2541 24.2449 0.50246L24.7515 0.0752652L25.2582 0.50246C28.5639 3.26666 32.1736 4.10848 35.9733 3.01537C38.8358 2.18611 40.7229 0.540153 40.7483 0.527589L41.3309 0.0124425L49.3863 9.07148L48.6516 9.5615C48.4363 9.69971 43.6867 13.0544 46.6251 21.0204C49.0696 27.6544 49.2216 33.3964 47.0684 38.5856C45.6752 41.9529 43.2814 45.0815 39.9377 47.9085C36.2013 51.0622 31.1984 53.9143 25.0302 56.3644L24.7515 56.4649ZM2.40931 8.82019C2.95394 9.33533 3.73921 10.2149 4.35983 11.4839C5.32242 13.4439 6.09502 16.7861 4.34716 21.5355C2.04201 27.7927 1.87736 33.1703 3.87853 37.9825C6.63964 44.6543 13.6691 50.3209 24.7515 54.7939C35.834 50.3209 42.8634 44.6543 45.6246 37.9825C47.6131 33.1703 47.4611 27.7927 45.1559 21.5355C43.4081 16.7861 44.1807 13.4565 45.1433 11.4839C45.7639 10.2023 46.5491 9.33533 47.0938 8.82019L41.1662 2.16098C40.3176 2.78921 38.6331 3.85719 36.4039 4.49799C33.5288 5.32725 29.2225 5.55341 24.7389 2.08559C20.2679 5.55341 15.9616 5.32725 13.0865 4.49799C10.87 3.85719 9.18544 2.77664 8.32418 2.16098L2.40931 8.82019Z" fill="#D51820"></path>
    <path d="M25.5384 37.4675H23.9678V42.4556H25.5384V37.4675Z" fill="#D51820"></path>
    <path d="M25.5384 11.4966H23.9678V16.4847H25.5384V11.4966Z" fill="#D51820"></path>
    <path d="M24.5363 37.8319C23.5103 37.8319 22.5098 37.6937 21.5725 37.4173C20.6479 37.1408 19.8373 36.7262 19.1534 36.1608C18.4694 35.5954 17.8995 34.8918 17.4815 34.0751C17.2535 33.6228 17.0762 33.1202 16.9495 32.5673L18.4821 32.2407C18.5707 32.6553 18.7101 33.0448 18.8747 33.3715C19.204 33.9997 19.622 34.54 20.1539 34.9672C20.6732 35.3944 21.3065 35.721 22.0285 35.9346C22.8137 36.1734 23.6623 36.2865 24.5363 36.2865C25.5242 36.2865 26.4614 36.1859 27.3354 35.9723C28.108 35.7839 28.7919 35.4949 29.3365 35.118C29.8432 34.7661 30.2485 34.3138 30.5524 33.7358C30.8944 33.1076 31.0464 32.4291 30.9957 31.7255C30.9324 30.7706 30.5144 30.1424 29.4632 29.376C28.9566 28.999 28.3106 28.6598 27.5 28.3205C26.6641 27.9813 25.8408 27.6546 25.0682 27.3782C24.2829 27.1143 23.5103 26.8128 22.7757 26.4987C22.0031 26.172 21.3065 25.8202 20.6732 25.4558C19.926 25.0161 19.3053 24.526 18.8367 23.9858C18.1908 23.2445 17.8361 22.3398 17.8361 21.3598C17.8361 19.7892 18.5581 18.4825 19.926 17.5778C21.0659 16.824 22.5604 16.4596 24.5109 16.4596C26.1068 16.4596 27.538 16.7486 28.7666 17.314C29.4379 17.6281 30.6664 18.3945 31.2997 20.0656L29.8305 20.6059C29.3872 19.45 28.5639 18.9222 28.108 18.7212C27.0821 18.2438 25.8661 18.005 24.5109 18.005C22.8897 18.005 21.6738 18.2815 20.7999 18.8594C19.8753 19.4751 19.4067 20.3169 19.4067 21.3472C19.4067 21.9377 19.622 22.5031 20.0146 22.9555C20.3693 23.3701 20.8632 23.747 21.4585 24.0988C22.0285 24.4255 22.6744 24.7522 23.3837 25.0537C24.0803 25.3553 24.8276 25.6317 25.5875 25.8956C26.3981 26.1846 27.234 26.5112 28.0953 26.863C29.0199 27.24 29.7672 27.642 30.3878 28.0944C31.3884 28.8231 32.4396 29.8157 32.5536 31.5999C32.6169 32.605 32.4143 33.5599 31.9203 34.452C31.4897 35.2436 30.9324 35.8593 30.2231 36.3618C29.5012 36.8644 28.6526 37.2288 27.6773 37.455C26.7147 37.7188 25.6508 37.8319 24.5363 37.8319Z" fill="#D51820"></path>
  </symbol>

  <symbol fill="none" viewBox="0 0 57 57" id="support">
    <g clip-path="url(#clip0_2_797)">
      <path d="M37.3965 13.8648L31.6996 35.1186L33.2056 35.5222L38.9024 14.2685L37.3965 13.8648Z" fill="#D51820"></path>
      <path d="M16.2112 35.3518H6.57864V33.5586C6.57864 29.3223 8.91747 26.8482 10.9813 24.6658C12.729 22.8171 14.2383 21.2213 14.2383 18.8381C14.2383 15.8838 13.0118 15.4857 11.813 15.4857C11.2275 15.4857 9.44756 15.4857 9.44756 18.7483V20.1844H7.895V18.7483C7.895 15.6886 9.32335 13.9331 11.813 13.9331C13.6273 13.9331 15.7909 14.7837 15.7909 18.8381C15.7909 21.839 13.9189 23.8174 12.1091 25.7315C10.154 27.8008 8.13121 29.9456 8.13121 33.5586V33.7993H16.2112V35.3518Z" fill="#D51820"></path>
      <path d="M26.5911 35.4161H25.0386V32.321H16.5416V30.0875L23.7622 14.4322H26.5911V30.7684H29.5244V32.321H26.5911V35.4161ZM18.0942 30.7684H25.0386V15.9847H24.7558L18.0942 30.428V30.7684Z" fill="#D51820"></path>
      <path d="M40.2393 14.1061V15.7408H47.9633L41.9993 35.6612H43.7692L49.7687 15.5922L49.7754 15.5689V14.1061H40.2393Z" fill="#D51820"></path>
      <path d="M52.2572 56.47L39.4242 50.0535H0.0556641V-0.00109863H56.2983V50.0535H52.2572V56.47ZM1.60823 48.5009H39.7913L50.7047 53.9582V48.5009H54.7458V1.55146H1.60823V48.5009Z" fill="#D51820"></path>
    </g>
    <defs>
      <clipPath id="clip0_2_797">
        <rect width="56.2438" height="56.47" fill="white" transform="translate(0.0556641)"></rect>
      </clipPath>
    </defs>
  </symbol>

  <symbol viewBox="0 0 10 17" id="facebook">
    <path d="M9.63281 0.332413V2.9842H8.0558C7.47991 2.9842 7.09152 3.10473 6.89063 3.34581C6.68973 3.58688 6.58929 3.94848 6.58929 4.43063V6.32907H9.53237L9.14062 9.30228H6.58929V16.9262H3.51563V9.30228H0.954241V6.32907H3.51563V4.13933C3.51563 2.8938 3.86384 1.92951 4.56027 1.24648C5.2567 0.556743 6.18415 0.211877 7.34263 0.211877C8.32701 0.211877 9.0904 0.252056 9.63281 0.332413Z" fill="currentColor"></path>
  </symbol>

  <symbol viewBox="0 0 16 16" id="instagram">
    <path d="M9.53237 10.03C10.0346 9.52773 10.2857 8.9217 10.2857 8.21188C10.2857 7.50206 10.0346 6.89603 9.53237 6.3938C9.03013 5.89157 8.42411 5.64045 7.71429 5.64045C7.00446 5.64045 6.39844 5.89157 5.89621 6.3938C5.39397 6.89603 5.14286 7.50206 5.14286 8.21188C5.14286 8.9217 5.39397 9.52773 5.89621 10.03C6.39844 10.5322 7.00446 10.7833 7.71429 10.7833C8.42411 10.7833 9.03013 10.5322 9.53237 10.03ZM10.5167 5.40942C11.2868 6.17951 11.6719 7.11366 11.6719 8.21188C11.6719 9.31009 11.2868 10.2442 10.5167 11.0143C9.74665 11.7844 8.8125 12.1695 7.71429 12.1695C6.61607 12.1695 5.68192 11.7844 4.91183 11.0143C4.14174 10.2442 3.7567 9.31009 3.7567 8.21188C3.7567 7.11366 4.14174 6.17951 4.91183 5.40942C5.68192 4.63933 6.61607 4.25429 7.71429 4.25429C8.8125 4.25429 9.74665 4.63933 10.5167 5.40942ZM12.4855 3.44067C12.6663 3.62148 12.7567 3.83911 12.7567 4.09357C12.7567 4.34804 12.6663 4.56567 12.4855 4.74648C12.3047 4.92728 12.0871 5.01768 11.8326 5.01768C11.5781 5.01768 11.3605 4.92728 11.1797 4.74648C10.9989 4.56567 10.9085 4.34804 10.9085 4.09357C10.9085 3.83911 10.9989 3.62148 11.1797 3.44067C11.3605 3.25987 11.5781 3.16947 11.8326 3.16947C12.0871 3.16947 12.3047 3.25987 12.4855 3.44067ZM8.47768 1.88375C8.01563 1.88375 7.76116 1.88375 7.71429 1.88375C7.66741 1.88375 7.4096 1.88375 6.94085 1.88375C6.47879 1.87706 6.12723 1.87706 5.88616 1.88375C5.64509 1.88375 5.32031 1.8938 4.91183 1.91389C4.51004 1.92728 4.16518 1.96076 3.87723 2.01433C3.59598 2.06121 3.35826 2.12148 3.16406 2.19514C2.82924 2.32906 2.5346 2.52326 2.28013 2.77773C2.02567 3.03219 1.83147 3.32683 1.69754 3.66165C1.62388 3.85585 1.56027 4.09692 1.5067 4.38487C1.45982 4.66612 1.42634 5.01098 1.40625 5.41947C1.39286 5.82125 1.38281 6.14268 1.37612 6.38375C1.37612 6.62482 1.37612 6.97973 1.37612 7.44848C1.38281 7.91054 1.38616 8.165 1.38616 8.21188C1.38616 8.25875 1.38281 8.51657 1.37612 8.98532C1.37612 9.44737 1.37612 9.79893 1.37612 10.04C1.38281 10.2811 1.39286 10.6059 1.40625 11.0143C1.42634 11.4161 1.45982 11.761 1.5067 12.0489C1.56027 12.3302 1.62388 12.5679 1.69754 12.7621C1.83147 13.0969 2.02567 13.3916 2.28013 13.646C2.5346 13.9005 2.82924 14.0947 3.16406 14.2286C3.35826 14.3023 3.59598 14.3659 3.87723 14.4195C4.16518 14.4663 4.51004 14.4998 4.91183 14.5199C5.32031 14.5333 5.64509 14.5434 5.88616 14.55C6.12723 14.55 6.47879 14.55 6.94085 14.55C7.4096 14.5434 7.66741 14.54 7.71429 14.54C7.76116 14.54 8.01563 14.5434 8.47768 14.55C8.94643 14.55 9.30134 14.55 9.54241 14.55C9.78348 14.5434 10.1049 14.5333 10.5067 14.5199C10.9152 14.4998 11.26 14.4663 11.5413 14.4195C11.8292 14.3659 12.0703 14.3023 12.2645 14.2286C12.5993 14.0947 12.894 13.9005 13.1484 13.646C13.4029 13.3916 13.5971 13.0969 13.731 12.7621C13.8047 12.5679 13.865 12.3302 13.9118 12.0489C13.9654 11.761 13.9989 11.4161 14.0123 11.0143C14.0324 10.6059 14.0424 10.2811 14.0424 10.04C14.0491 9.79893 14.0491 9.44737 14.0424 8.98532C14.0424 8.51657 14.0424 8.25875 14.0424 8.21188C14.0424 8.165 14.0424 7.91054 14.0424 7.44848C14.0491 6.97973 14.0491 6.62482 14.0424 6.38375C14.0424 6.14268 14.0324 5.82125 14.0123 5.41947C13.9989 5.01098 13.9654 4.66612 13.9118 4.38487C13.865 4.09692 13.8047 3.85585 13.731 3.66165C13.5971 3.32683 13.4029 3.03219 13.1484 2.77773C12.894 2.52326 12.5993 2.32906 12.2645 2.19514C12.0703 2.12148 11.8292 2.06121 11.5413 2.01433C11.26 1.96076 10.9152 1.92728 10.5067 1.91389C10.1049 1.8938 9.78348 1.88375 9.54241 1.88375C9.30134 1.87706 8.94643 1.87706 8.47768 1.88375ZM15.3783 5.02773C15.4118 5.61701 15.4286 6.6784 15.4286 8.21188C15.4286 9.74536 15.4118 10.8067 15.3783 11.396C15.3114 12.7889 14.8962 13.867 14.1328 14.6304C13.3694 15.3938 12.2913 15.809 10.8984 15.8759C10.3092 15.9094 9.24777 15.9262 7.71429 15.9262C6.1808 15.9262 5.11942 15.9094 4.53013 15.8759C3.13728 15.809 2.05915 15.3938 1.29576 14.6304C0.532366 13.867 0.117188 12.7889 0.0502232 11.396C0.0167411 10.8067 0 9.74536 0 8.21188C0 6.6784 0.0167411 5.61701 0.0502232 5.02773C0.117188 3.63487 0.532366 2.55674 1.29576 1.79335C2.05915 1.02996 3.13728 0.614779 4.53013 0.547815C5.11942 0.514333 6.1808 0.497592 7.71429 0.497592C9.24777 0.497592 10.3092 0.514333 10.8984 0.547815C12.2913 0.614779 13.3694 1.02996 14.1328 1.79335C14.8962 2.55674 15.3114 3.63487 15.3783 5.02773Z" fill="currentColor"></path>
  </symbol>

  <symbol viewBox="0 0 16 16" id="linkedin">
    <path d="M3.50558 5.48978V15.444H0.190848V5.48978H3.50558ZM3.71652 2.41612C3.72321 2.90496 3.55246 3.31344 3.20424 3.64157C2.86272 3.96969 2.41071 4.13375 1.84821 4.13375H1.82813C1.27902 4.13375 0.837054 3.96969 0.502232 3.64157C0.167411 3.31344 0 2.90496 0 2.41612C0 1.92058 0.170759 1.5121 0.512277 1.19067C0.860491 0.862547 1.3125 0.698485 1.8683 0.698485C2.42411 0.698485 2.86942 0.862547 3.20424 1.19067C3.53906 1.5121 3.70982 1.92058 3.71652 2.41612ZM15.4286 9.73866V15.444H12.1239V10.1204C12.1239 9.41723 11.9866 8.86813 11.7121 8.47304C11.4442 8.07125 11.0223 7.87036 10.4464 7.87036C10.0246 7.87036 9.66964 7.98755 9.3817 8.22192C9.10045 8.4496 8.88951 8.7342 8.74888 9.07572C8.67522 9.27661 8.63839 9.54782 8.63839 9.88933V15.444H5.33371C5.3471 12.7721 5.35379 10.6059 5.35379 8.94514C5.35379 7.28442 5.35045 6.29335 5.34375 5.97192L5.33371 5.48978H8.63839V6.93621H8.6183C8.75223 6.72192 8.88951 6.53442 9.03013 6.37371C9.17076 6.21299 9.35826 6.03889 9.59263 5.85139C9.83371 5.66389 10.125 5.51991 10.4665 5.41947C10.8147 5.31232 11.1998 5.25875 11.6217 5.25875C12.7667 5.25875 13.6875 5.64045 14.3839 6.40384C15.0804 7.16054 15.4286 8.27215 15.4286 9.73866Z" fill="currentColor"></path>
  </symbol>

  <symbol viewBox="0 0 17 14" id="twitter">
    <path d="M16.2723 2.31009C15.8237 2.96634 15.2813 3.52549 14.6451 3.98755C14.6518 4.0813 14.6551 4.22192 14.6551 4.40942C14.6551 5.27996 14.5279 6.15049 14.2734 7.02103C14.019 7.88487 13.6306 8.71523 13.1083 9.5121C12.5926 10.309 11.9766 11.0154 11.26 11.6315C10.5435 12.2409 9.67969 12.7297 8.66853 13.098C7.65737 13.4596 6.57589 13.6404 5.42411 13.6404C3.60938 13.6404 1.94866 13.155 0.441964 12.184C0.676339 12.2108 0.9375 12.2242 1.22545 12.2242C2.73214 12.2242 4.07478 11.7621 5.25335 10.838C4.55022 10.8246 3.92076 10.6103 3.36496 10.1951C2.80915 9.77326 2.42746 9.23755 2.21987 8.58799C2.44085 8.62148 2.64509 8.63822 2.83259 8.63822C3.12054 8.63822 3.40513 8.60139 3.68638 8.52773C2.93638 8.37371 2.31362 8.00206 1.81808 7.41277C1.32924 6.81679 1.08482 6.12706 1.08482 5.34357V5.3034C1.54018 5.55786 2.02902 5.69514 2.55134 5.71523C2.10938 5.42058 1.75781 5.03554 1.49665 4.56009C1.23549 4.08465 1.10491 3.56902 1.10491 3.01322C1.10491 2.42393 1.25223 1.87817 1.54688 1.37594C2.35714 2.37371 3.34152 3.17393 4.5 3.77661C5.66518 4.37259 6.91071 4.70407 8.23661 4.77103C8.18304 4.51656 8.15625 4.2688 8.15625 4.02773C8.15625 3.1304 8.47098 2.36701 9.10045 1.73755C9.73661 1.10139 10.5033 0.783306 11.4007 0.783306C12.3382 0.783306 13.1283 1.12482 13.7712 1.80786C14.5011 1.66723 15.1875 1.40607 15.8304 1.02438C15.5826 1.79447 15.1071 2.39045 14.404 2.81232C15.0268 2.74536 15.6496 2.57795 16.2723 2.31009Z" fill="currentColor"></path>
  </symbol>

  <symbol viewBox="0 0 20 14" id="youtube">
    <path d="M8.14174 9.54224L13.0033 7.03107L8.14174 4.48978V9.54224ZM10 0.883753C11.125 0.883753 12.2098 0.900494 13.2545 0.933976C14.3058 0.960761 15.0759 0.990895 15.5647 1.02438L16.298 1.06456C16.3047 1.06456 16.3616 1.07125 16.4688 1.08465C16.5759 1.09134 16.6529 1.10139 16.6998 1.11478C16.7467 1.12148 16.8237 1.13487 16.9308 1.15496C17.0446 1.17505 17.1417 1.20183 17.2221 1.23532C17.3025 1.2688 17.3962 1.31232 17.5033 1.3659C17.6105 1.41947 17.7143 1.48643 17.8147 1.56679C17.9152 1.64045 18.0123 1.7275 18.106 1.82795C18.1462 1.86813 18.1964 1.93174 18.2567 2.0188C18.3237 2.09915 18.4208 2.29335 18.548 2.60139C18.6819 2.90942 18.7723 3.24759 18.8192 3.6159C18.8728 4.04447 18.9129 4.50317 18.9397 4.99201C18.9732 5.47415 18.9933 5.8525 19 6.12706V6.52884V7.89491C19.0067 8.8659 18.9464 9.83688 18.8192 10.8079C18.7723 11.1762 18.6886 11.511 18.5681 11.8123C18.4475 12.107 18.3404 12.3112 18.2467 12.425L18.106 12.5958C18.0123 12.6963 17.9152 12.7867 17.8147 12.867C17.7143 12.9407 17.6105 13.0043 17.5033 13.0579C17.3962 13.1047 17.3025 13.1449 17.2221 13.1784C17.1417 13.2119 17.0446 13.2387 16.9308 13.2588C16.8237 13.2788 16.7433 13.2956 16.6897 13.309C16.6429 13.3157 16.5658 13.3257 16.4587 13.3391C16.3583 13.3458 16.3047 13.3492 16.298 13.3492C14.6172 13.4764 12.5179 13.54 10 13.54C8.61384 13.5266 7.40848 13.5065 6.38393 13.4797C5.36607 13.4463 4.69643 13.4195 4.375 13.3994L3.88281 13.3592L3.52121 13.319C3.28013 13.2855 3.09598 13.2521 2.96875 13.2186C2.84821 13.1851 2.67746 13.1148 2.45647 13.0076C2.24219 12.9005 2.05469 12.7632 1.89397 12.5958C1.85379 12.5556 1.80022 12.4954 1.73326 12.415C1.67299 12.3279 1.57589 12.1304 1.44196 11.8224C1.31473 11.5143 1.22768 11.1762 1.1808 10.8079C1.12723 10.3793 1.08371 9.92393 1.05022 9.44179C1.02344 8.95295 1.0067 8.57125 1 8.2967V7.89491V6.52884C0.993304 5.55786 1.05357 4.58688 1.1808 3.6159C1.22768 3.24759 1.31138 2.91612 1.43192 2.62148C1.55246 2.32014 1.6596 2.11255 1.75335 1.99871L1.89397 1.82795C1.98772 1.7275 2.08482 1.64045 2.18527 1.56679C2.28571 1.48643 2.38951 1.41947 2.49665 1.3659C2.60379 1.31232 2.69754 1.2688 2.7779 1.23532C2.85826 1.20183 2.95201 1.17505 3.05915 1.15496C3.17299 1.13487 3.25335 1.12148 3.30022 1.11478C3.3471 1.10139 3.42411 1.09134 3.53125 1.08465C3.63839 1.07125 3.69531 1.06456 3.70201 1.06456C5.38281 0.944021 7.48214 0.883753 10 0.883753Z" fill="currentColor"></path>
  </symbol>

   <symbol viewBox="0 0 10 9" id="control-icon">
    <path d="M4.63043 9C7.18803 9 9.26087 6.98555 9.26087 4.5C9.26087 2.01445 7.18803 0 4.63043 0C2.07284 0 0 2.01445 0 4.5C0 6.98555 2.07284 9 4.63043 9ZM4.63043 6.1875C3.67179 6.1875 2.89402 5.43164 2.89402 4.5C2.89402 3.56836 3.67179 2.8125 4.63043 2.8125C5.58908 2.8125 6.36685 3.56836 6.36685 4.5C6.36685 5.43164 5.58908 6.1875 4.63043 6.1875Z" fill="currentColor"></path>
  </symbol>
</svg>